ffmpeg started on 2016-11-28 at 21:54:46
Report written to "Output/x264/results/ffmpeg/old_town_cross_2160p50ultrafast10000k.log"
Command line:
Tools/ffmpeg/ffmpeg -benchmark -y -i Input/y4m/old_town_cross_2160p50.y4m -c:v libx264 -preset ultrafast -b:v 10000k -an Output/x264/encoded/old_town_cross_2160p50ultrafast10000k.mkv
ffmpeg version N-82227-gdb23fde Copyright (c) 2000-2016 the FFmpeg developers
  built with gcc 5.4.0 (Ubuntu 5.4.0-6ubuntu1~16.04.2) 20160609
  configuration: --prefix=/home/jaroslav/ffmpeg_build --pkg-config-flags=--static --extra-cflags=-I/home/jaroslav/ffmpeg_build/include --extra-ldflags=-L/home/jaroslav/ffmpeg_build/lib --bindir=/home/jaroslav/bin --enable-gpl --enable-libass --enable-libfdk-aac --enable-libfreetype --enable-libmp3lame --enable-libopus --enable-libtheora --enable-libvorbis --enable-libvpx --enable-libx264 --enable-libx265 --enable-nvenc --enable-libmfx --enable-libxvid --enable-libgsm --enable-libopencore-amrnb --enable-version3 --enable-nonfree
  libavutil      55. 35.100 / 55. 35.100
  libavcodec     57. 66.101 / 57. 66.101
  libavformat    57. 57.100 / 57. 57.100
  libavdevice    57.  2.100 / 57.  2.100
  libavfilter     6. 66.100 /  6. 66.100
  libswscale      4.  3.100 /  4.  3.100
  libswresample   2.  4.100 /  2.  4.100
  libpostproc    54.  2.100 / 54.  2.100
Input #0, yuv4mpegpipe, from 'Input/y4m/old_town_cross_2160p50.y4m':
  Duration: 00:00:10.00, start: 0.000000, bitrate: 4976642 kb/s
    Stream #0:0: Video: rawvideo (I420 / 0x30323449), yuv420p(progressive), 3840x2160, SAR 1:1 DAR 16:9, 50 fps, 50 tbr, 50 tbn, 50 tbc
[libx264 @ 0x2e98120] using SAR=1/1
[libx264 @ 0x2e98120] using cpu capabilities: MMX2 SSE2Fast SSSE3 SSE4.2 AVX FMA3 AVX2 LZCNT BMI2
[libx264 @ 0x2e98120] profile Constrained Baseline, level 5.2
[libx264 @ 0x2e98120] 264 - core 148 - H.264/MPEG-4 AVC codec - Copyleft 2003-2016 - http://www.videolan.org/x264.html - options: cabac=0 ref=1 deblock=0:0:0 analyse=0:0 me=dia subme=0 psy=1 psy_rd=1.00:0.00 mixed_ref=0 me_range=16 chroma_me=1 trellis=0 8x8dct=0 cqm=0 deadzone=21,11 fast_pskip=1 chroma_qp_offset=0 threads=6 lookahead_threads=1 sliced_threads=0 nr=0 decimate=1 interlaced=0 bluray_compat=0 constrained_intra=0 bframes=0 weightp=0 keyint=250 keyint_min=25 scenecut=0 intra_refresh=0 rc=abr mbtree=0 bitrate=10000 ratetol=1.0 qcomp=0.60 qpmin=0 qpmax=69 qpstep=4 ip_ratio=1.40 aq=0
Output #0, matroska, to 'Output/x264/encoded/old_town_cross_2160p50ultrafast10000k.mkv':
  Metadata:
    encoder         : Lavf57.57.100
    Stream #0:0: Video: h264 (libx264) (H264 / 0x34363248), yuv420p, 3840x2160 [SAR 1:1 DAR 16:9], q=-1--1, 10000 kb/s, 50 fps, 1k tbn, 50 tbc
    Metadata:
      encoder         : Lavc57.66.101 libx264
    Side data:
      cpb: bitrate max/min/avg: 0/0/10000000 buffer size: 0 vbv_delay: -1
Stream mapping:
  Stream #0:0 -> #0:0 (rawvideo (native) -> h264 (libx264))
Press [q] to stop, [?] for help
frame=   50 fps=0.0 q=34.0 size=       1kB time=00:00:00.84 bitrate=   7.0kbits/s speed=1.67x    frame=   98 fps= 97 q=34.0 size=       1kB time=00:00:01.80 bitrate=   3.3kbits/s speed=1.79x    frame=  146 fps= 96 q=34.0 size=       1kB time=00:00:02.76 bitrate=   2.1kbits/s speed=1.82x    frame=  194 fps= 96 q=34.0 size=       1kB time=00:00:03.72 bitrate=   1.6kbits/s speed=1.84x    frame=  241 fps= 95 q=34.0 size=    5121kB time=00:00:04.66 bitrate=9001.2kbits/s speed=1.84x    frame=  289 fps= 95 q=34.0 size=    5882kB time=00:00:05.62 bitrate=8572.3kbits/s speed=1.85x    frame=  336 fps= 95 q=34.0 size=    5882kB time=00:00:06.56 bitrate=7344.2kbits/s speed=1.86x    frame=  383 fps= 95 q=34.0 size=    5882kB time=00:00:07.50 bitrate=6423.8kbits/s speed=1.86x    frame=  430 fps= 95 q=34.0 size=    5882kB time=00:00:08.44 bitrate=5708.5kbits/s speed=1.86x    frame=  476 fps= 94 q=34.0 size=   11021kB time=00:00:09.36 bitrate=9644.9kbits/s speed=1.86x    frame=  500 fps= 93 q=-1.0 Lsize=   12373kB time=00:00:09.98 bitrate=10155.4kbits/s speed=1.86x    
video:12368kB audio:0kB subtitle:0kB other streams:0kB global headers:0kB muxing overhead: 0.038231%
bench: utime=19.312s
bench: maxrss=376684kB
[libx264 @ 0x2e98120] frame I:2     Avg QP:36.50  size:241248
[libx264 @ 0x2e98120] frame P:498   Avg QP:34.17  size: 24462
[libx264 @ 0x2e98120] mb I  I16..4: 100.0%  0.0%  0.0%
[libx264 @ 0x2e98120] mb P  I16..4:  2.4%  0.0%  0.0%  P16..4: 20.3%  0.0%  0.0%  0.0%  0.0%    skip:77.4%
[libx264 @ 0x2e98120] final ratefactor: 28.40
[libx264 @ 0x2e98120] coded y,uvDC,uvAC intra: 24.2% 30.9% 6.7% inter: 3.7% 4.2% 0.0%
[libx264 @ 0x2e98120] i16 v,h,dc,p: 41% 38% 17%  5%
[libx264 @ 0x2e98120] i8c dc,h,v,p: 67% 16% 16%  1%
[libx264 @ 0x2e98120] kb/s:10131.71
